<svg xmlns="http://www.w3.org/2000/svg" width="72" height="64" viewBox="0 0 72 64" fill="none">
<path d="M57.5875 4.9126L57.3125 4.6501C56.725 4.0751 55.875 3.8501 55.075 4.0626C54.275 4.2751 53.65 4.8876 53.4375 5.6876L53.3375 6.0501C52.925 7.5251 52.7 9.0126 52.65 10.5001C55.6875 13.0751 58.0125 16.4751 59.3125 20.3501C58.2875 20.1126 57.25 19.9876 56.1875 19.9876C56.1125 19.9876 56.05 19.9876 55.975 19.9876C53.675 14.4876 48.9125 10.3126 43.025 8.8251L42.6 8.7126C41.825 8.5126 40.9875 8.6376 40.2875 9.0376C38.9375 9.8126 38.3375 11.4751 38.8875 12.9251C40.75 17.8626 44.425 21.8501 49.0625 24.1376C48.6 24.9626 48.2625 25.8876 48.1125 26.8626L34.9625 19.3626C31.1 17.1626 26.725 16.0001 22.275 16.0001C18.2375 16.0001 14.5 18.1001 12.4125 21.5501C11.125 19.9876 9.175 19.0001 7 19.0001C3.1375 19.0001 0 22.1376 0 26.0001C0 29.8626 3.1375 33.0001 7 33.0001C8.4125 33.0001 9.725 32.5876 10.825 31.8626C11.4375 34.0126 12.6375 36.0001 14.375 37.6001L32.15 53.9001C33.625 55.2501 35.55 56.0001 37.55 56.0001H52C54.2125 56.0001 56 54.2126 56 52.0001C56 49.7876 54.2125 48.0001 52 48.0001H44H41.9H40V42.5626C40 37.2001 36.45 32.5001 31.3 31.0251L27.45 29.9251C26.3875 29.6251 25.775 28.5126 26.075 27.4501C26.375 26.3876 27.4875 25.7751 28.55 26.0751L32.4 27.1751C39.275 29.1376 44 35.4126 44 42.5626V44.5251L51 40.4751L51.8 40.0126H64.4625C68.625 40.0126 72 36.6376 72 32.4751C72 30.2126 70.975 28.0626 69.225 26.6376L64.9 23.1126C64.325 22.6501 63.725 22.2251 63.0875 21.8626C64.1375 15.7001 62.1125 9.3626 57.6 4.9251L57.5875 4.9126ZM17.775 52.6626C15.9375 53.8876 15.4375 56.3751 16.6625 58.2126C17.8875 60.0501 20.375 60.5501 22.2125 59.3251L27.9625 55.4876L21.8875 49.9251L17.775 52.6751V52.6626ZM60 30.0001C60 29.4697 60.2107 28.961 60.5858 28.5859C60.9609 28.2108 61.4696 28.0001 62 28.0001C62.5304 28.0001 63.0391 28.2108 63.4142 28.5859C63.7893 28.961 64 29.4697 64 30.0001C64 30.5305 63.7893 31.0392 63.4142 31.4143C63.0391 31.7894 62.5304 32.0001 62 32.0001C61.4696 32.0001 60.9609 31.7894 60.5858 31.4143C60.2107 31.0392 60 30.5305 60 30.0001Z" fill="#E48900"/>
</svg>